# xmcd
#
# Track frame offsets:
#   150
#   18437
#   32734
#   52177
#   72661
#   86300
#   102505
#   116016
#   135247
#   153733
#   167981
#   185781
#   201785
#   222087
#   240455
#   258293
#   272852
#   291578
#   304400
#   320514
#   336615
#
# Disc length: 4664 seconds
#
# Revision: 0
# Processed by: cddbd v1.5.1PL0 Copyright (c) Steve Scherf et al.
# Submitted via: Media_Universe 3.0
#
DISCID=4f123615
DTITLE=Mixed Country - Mixed Country
DYEAR=2004
DGENRE=Country
TTITLE0=Where I Come From
TTITLE1=The Lonely One
TTITLE2=Jesse
TTITLE3=Sick and Tired
TTITLE4=Guitars and Cadillacs
TTITLE5=Last One Standing
TTITLE6=Whats On My Mind
TTITLE7=You Are
TTITLE8=Break Down Here
TTITLE9=Big Deal
TTITLE10=How Far
TTITLE11=Girls Lie Too
TTITLE12=When I Said I Do
TTITLE13=Rosemary's Grand Daughter
TTITLE14=No One Else On Earth
TTITLE15=How Wrong Is it
TTITLE16=Single Girl Blues
TTITLE17=I Try To Think About Elvis
TTITLE18=A Man Aint Made Of Stone
TTITLE19=Forever And Ever Amen
TTITLE20=Six Days On The Road
EXTD=
EXTT0=
EXTT1=
EXTT2=
EXTT3=
EXTT4=
EXTT5=
EXTT6=
EXTT7=
EXTT8=
EXTT9=
EXTT10=
EXTT11=
EXTT12=
EXTT13=
EXTT14=
EXTT15=
EXTT16=
EXTT17=
EXTT18=
EXTT19=
EXTT20=
PLAYORDER=
